<?xml version="1.0" encoding="iso-8859-1"?>
<!-- Uploaded to: SVG Repo, www.svgrepo.com, Generator: SVG Repo Mixer Tools -->
<!DOCTYPE svg PUBLIC "-//W3C//DTD SVG 1.1//EN" "http://www.w3.org/Graphics/SVG/1.1/DTD/svg11.dtd">
<svg fill="#000000" version="1.1" id="Capa_1" xmlns="http://www.w3.org/2000/svg" xmlns:xlink="http://www.w3.org/1999/xlink" 
	 width="800px" height="800px" viewBox="0 0 468.412 468.411"
	 xml:space="preserve">
<g>
	<g>
		<path d="M458.302,162.012c-9.474-5.26-21.42-1.844-26.678,7.624c-2.188,3.933-4.516,7.049-6.877,9.53
			c-10.663,11.227-22.024,9.303-24.289,8.758c-1.791-0.517-3.643-0.782-5.494-0.782H69.307c-8.622,0-16.082-3.777-21.842-7.977
			c-7.125-5.198-11.61-11.057-11.836-11.359c-6.234-8.792-18.42-10.92-27.258-4.719c-8.879,6.218-11.037,18.458-4.819,27.327
			c0.94,1.343,21.642,30.23,55.846,35.177c-9.169,8.821-14.914,21.171-14.914,34.873c0,26.693,21.722,48.414,48.414,48.414
			c26.689,0,48.412-21.713,48.412-48.414c0-13.28-5.378-25.314-14.068-34.079h206.078c-8.688,8.757-14.07,20.799-14.07,34.079
			c0,26.693,21.729,48.414,48.414,48.414c26.693,0,48.413-21.713,48.413-48.414c0-12.752-4.981-24.321-13.064-32.981
			c0.493,0.006,0.93,0.072,1.436,0.072c18.674,0,44.45-8.173,61.506-38.868C471.198,179.217,467.78,167.271,458.302,162.012z
			 M92.897,269.625c-5.058,0-9.163-4.104-9.163-9.161c0-5.053,4.105-9.161,9.163-9.161c5.047,0,9.161,4.108,9.161,9.161
			C102.058,265.521,97.953,269.625,92.897,269.625z M367.654,269.625c-5.049,0-9.16-4.104-9.16-9.161
			c0-5.053,4.111-9.161,9.16-9.161c5.054,0,9.161,4.108,9.161,9.161C376.815,265.521,372.715,269.625,367.654,269.625z"/>
	</g>
</g>
</svg>